PathFileType	4	(X/Y/Z)	\\147.46.242.158\로컬 디스크 (e)\MOCAP Data\Iguana Capture\iguana\Project 2\Capture day 7\Session 2\Take14.trc
DataRate	CameraRate	NumFrames	NumMarkers	Units	OrigDataRate	OrigDataStartFrame	OrigNumFrames
120.0	120.0	8	23	mm	120.0	1	5026
Frame#	Time	ana:head1			ana:head2			ana:bone1			ana:bone2			ana:bone3			ana:tail1			ana:tail2			ana:tail3			ana:tail4			ana:Rforefoot1			ana:Rforefoot2			ana:Rforefoot3			ana:Lforefoot1			ana:Lforefoot2			ana:Lforefoot3			ana:RhindLeg1			ana:RhindLeg2			ana:RhindLeg3			ana:RhindLeg4			ana:LhindLeg1			ana:LhindLeg2			ana:LhindLeg3			ana:LhindLeg4			
		X1	Y1	Z1	X2	Y2	Z2	X3	Y3	Z3	X4	Y4	Z4	X5	Y5	Z5	X6	Y6	Z6	X7	Y7	Z7	X8	Y8	Z8	X9	Y9	Z9	X10	Y10	Z10	X11	Y11	Z11	X12	Y12	Z12	X13	Y13	Z13	X14	Y14	Z14	X15	Y15	Z15	X16	Y16	Z16	X17	Y17	Z17	X18	Y18	Z18	X19	Y19	Z19	X20	Y20	Z20	X21	Y21	Z21	X22	Y22	Z22	X23	Y23	Z23	

2751	22.917	331.41910	164.75244	51.06171	320.86874	165.94470	51.86857	302.17755	174.61343	40.94933	283.11069	194.87682	31.47917	258.86557	214.57709	20.29287	234.29750	231.47050	12.61962	203.62944	251.82848	8.19962	163.42697	266.00851	7.13517	122.51165	275.44446	5.33378	295.91492	164.55182	22.72433	284.86816	171.63271	13.34041	297.34933	176.35818	2.66046	317.05450	177.67702	24.38611	326.78015	181.12157	15.17391	331.03384	169.06514	2.21420	254.13715	207.11110	15.31071	256.24213	187.99580	18.52833	242.74194	180.78009	2.28528	247.31880	172.45592	4.46404	262.29941	222.37724	13.98888	269.27664	239.49718	13.44218	258.78687	256.07425	3.07401	269.50916	257.98019	3.63954	
2752	22.925	331.38351	164.66023	50.90744	321.03629	166.71703	51.43793	302.58817	174.93459	40.63536	283.17178	194.84276	31.45977	258.87790	214.50143	20.36217	234.28265	231.48106	12.71585	203.33556	251.80304	8.19347	163.50006	266.02261	7.01037	122.50380	275.48618	5.43815	296.14340	164.49265	22.86935	284.53799	173.21095	12.83345	297.42484	176.36795	2.71743	317.11035	177.80801	24.27357	326.83173	181.21741	15.07251	331.00638	169.13240	2.19291	254.10316	206.95677	15.36941	256.18509	187.96352	18.59509	242.39485	180.04289	2.40451	247.61343	172.47809	4.17344	262.35574	222.40045	14.06098	269.27649	239.46744	13.46646	259.16815	256.21332	2.62740	269.86240	257.99359	3.26698	
2753	22.933	331.71390	164.78896	50.86486	321.13257	166.16605	51.48643	302.57010	175.41893	40.60827	283.20740	194.78291	31.47405	258.11325	214.50168	20.56352	234.28241	231.36722	12.68407	203.02460	251.97292	8.61344	163.54755	266.02136	6.97835	122.54450	275.44714	5.32740	296.23358	164.43449	22.91785	283.36203	173.15503	13.42081	297.42145	176.35352	2.71354	317.31113	177.89998	24.27270	326.06219	181.25679	14.33166	331.04788	169.16568	2.23794	254.11494	206.91373	15.48526	256.21948	187.85797	18.60398	242.66479	180.84654	2.29863	248.33298	172.74007	3.43805	262.10385	222.37547	14.22085	269.16010	239.34586	13.44816	259.17154	256.16943	2.68771	269.87073	257.95828	3.22668	
2754	22.942	332.05450	164.96304	50.74437	321.56042	166.59015	51.17173	302.89807	175.22441	40.56508	283.38007	194.65796	31.54719	258.62949	214.24124	20.55682	234.25659	231.29858	12.83563	203.25224	251.93016	8.35082	163.63181	266.06631	7.02529	122.47513	275.58438	5.33767	296.36353	164.30791	22.99041	284.56540	172.36299	13.57714	297.45435	176.33484	2.70630	317.53085	177.96248	24.04599	326.46722	181.44116	14.54901	331.02133	169.14339	2.20789	254.03008	206.70137	15.60234	256.38632	187.24118	18.76125	242.59093	180.75002	2.26207	248.10426	172.63083	3.65744	262.24435	222.16064	14.20986	269.17673	239.33022	13.48694	259.08899	256.11713	2.79955	269.75073	257.96747	3.35574	
2755	22.950	332.39227	165.11644	50.62921	321.83853	166.67259	51.05366	303.16568	175.20576	40.50592	283.46667	194.56302	31.58767	258.63031	214.07465	20.61663	234.23405	231.20079	12.89956	203.29713	251.87872	8.34186	163.66898	266.13785	7.04376	122.49438	275.62509	5.32937	296.56003	164.21803	23.05425	284.85797	172.10080	13.72670	297.48517	176.30315	2.71296	317.71246	178.05946	23.94243	326.43741	181.59288	14.39115	331.01697	169.15976	2.20779	254.02473	206.47571	15.69545	256.40692	187.00743	18.82265	242.54472	180.88464	2.21962	248.19061	172.66995	3.54661	262.23962	222.02972	14.27327	269.13989	239.26169	13.50044	259.10080	256.08417	2.81509	269.71078	257.95401	3.36802	
2756	22.958	332.79459	165.30138	50.50279	322.15659	166.73628	50.95672	303.45111	175.08803	40.46975	283.55664	194.45535	31.63605	258.60870	213.90137	20.69314	234.22418	231.05814	12.95176	203.41626	251.77522	8.32639	163.68669	266.23114	7.08080	122.55827	275.63669	5.31697	296.79129	164.13347	23.11260	285.22559	171.68851	13.88926	297.51785	176.25552	2.71914	317.89902	178.15834	23.86520	326.43747	181.76401	14.24852	331.01425	169.17873	2.20721	254.05527	206.20349	15.78467	256.39386	186.83440	18.86630	242.48163	181.08211	2.17222	248.21768	172.72038	3.48038	262.23508	221.89026	14.34920	269.08398	239.17845	13.50416	259.07675	256.03870	2.87492	269.62411	257.93591	3.42106	
2757	22.967	333.22791	165.51445	50.35801	322.52991	166.88574	50.83174	303.78171	174.95839	40.44360	283.66046	194.33635	31.68775	258.57434	213.73441	20.80058	234.24031	230.88052	13.00638	203.55844	251.65115	8.29255	163.71799	266.32764	7.11121	122.66946	275.61353	5.30993	297.06589	164.04639	23.19191	285.62027	171.33545	14.01693	297.55206	176.20212	2.73927	318.07446	178.25658	23.80127	326.49393	181.95248	14.12385	331.01306	169.20142	2.20577	254.13271	205.89565	15.85977	256.33798	186.73375	18.89572	242.37971	181.26015	2.13567	248.20178	172.75430	3.45194	262.26587	221.73384	14.44211	268.99957	239.08324	13.49384	259.08118	256.00052	2.89743	269.55774	257.91873	3.44369	
2758	22.975	333.68005	165.72701	50.20257	322.94296	167.04475	50.71598	304.14532	174.86578	40.42653	283.78214	194.20538	31.75212	258.52206	213.58282	20.95724	234.28749	230.72925	13.06556	203.70377	251.52850	8.26152	163.78496	266.39008	7.12987	122.85487	275.56998	5.29319	297.37317	163.95251	23.28761	285.94095	171.03535	14.16744	297.58563	176.14017	2.76831	318.24484	178.36232	23.76463	326.53940	182.15024	13.95732	331.01245	169.22751	2.20254	254.23419	205.63435	15.94246	256.26700	186.67981	18.90651	242.25119	181.43697	2.13062	248.20070	172.79126	3.40181	262.35327	221.57410	14.54496	268.89069	238.97563	13.47343	259.11032	255.97079	2.89553	269.54013	257.90451	3.43120	
